<?xml version="1.0" standalone="no"?>

<svg version="1.1" baseProfile="full" width="747" height="606" viewBox="0, 0, 747, 606"
     style="margin:0 auto;" 	
     xmlns="http://www.w3.org/2000/svg"
     xmlns:xlink="http://www.w3.org/1999/xlink">

	<defs>
		<style>
			.base{width:739px;height:508px;fill:#e7ecf1;}
			.base-bdr{width:739px;height:440px;fill:#414149;filter:url(#drop-shadow);}
			.desktop-bg{fill:#cff3ff;}
			.skin-bg{fill:#fff;filter:url(#skin-bg-glow);}
			.desktop-stand{clip-path:url(#desktop-stand-clip);}
			text{fill:#444;font-size:15.5px;}
			.fsi{font-style:italic;}
			.fwb{font-weight:bold;}
			.ffpl{font-family:"Palatino Linotype";}
			.top-bdr{fill:#666;}
			.name{fill:#333;font-size:29px;font-weight:bold;}
			.address{fill:#999;font-size:13px;}
			.blue{fill:#0ae;}
			.heading{fill:#222;font-size:17px;}
			.subheading{fill:#222;font-size:14px;}
			.dull{fill:#999;font-size:14.5px;}
			.disc{fill:black;}
			.line{stroke:#bbb;stroke-width:2px;___stroke:red;}
			___*{fill:red!important;opacity:1;}
		</style>

		<clipPath id="skin-group-clip">
			<path d="M 116 83 h 517 v 100 h 0 v 234 h -517 v 0 z"></path>
		</clipPath>

		<clipPath id="desktop-stand-clip">
			<path d="M300,0 L280,75 L252,79 L252,86 L494,86 L494,79 L466,75 L446,0 z" opacity=".25" />
		</clipPath>

		<filter id="skin-bg-glow">
			<feColorMatrix type="matrix" values=
			"0 0 0 0   0
			0 0 0 0   0
			0 0 0 0   0
			0 0 0 0.2 0"/>

			<feGaussianBlur stdDeviation="10" result="coloredBlur"/>

			<feMerge>
				<feMergeNode in="coloredBlur"/>
				<feMergeNode in="SourceGraphic"/>
			</feMerge>
		</filter>

		<filter id="drop-shadow">
			<feGaussianBlur in="SourceAlpha" stdDeviation=".5" />

			<feMerge>
				<feMergeNode />
				<feMergeNode in="SourceGraphic" />
			</feMerge>
		</filter>

		<filter id="blur-shadow">
			<feGaussianBlur stdDeviation="1"/>
		</filter>
	</defs>

	<g class="box-shadow">
		<path d="M 19 4 L 730 4 S 745 4, 745 19 L 745 495 S 745 510, 730 510 L 19 510 S 4 510, 4 495 L 4 19 S 4 4, 19 4" class="base" />
		<path d="M 19 4 L 730 4 S 745 4, 745 19 L 745 445 L 4 445 L 4 19 S 4 4, 19 4" class="base-bdr" />
		<rect x="32" y="32" width="680" height="385" class="desktop-bg" />
	</g>
	
	<rect  x="116" y="84" width="517" height="333" class="skin-bg" />

	<g transform="translate(125, 100) scale(.6)">
		<rect x="44" y="33" width="728" height="9" class="top-bdr" />
		<text x="44" y="98" class="name ffpl">JESSICA CLAIRE</text>
		<text x="44" y="129" class="address ffpl">123 MAIN STREET, SAN FRANCISCO, CA 94122</text>
		<text x="44" y="158" class="address ffpl">H: 415-278-2542 | C: 415-669-5989 | <tspan class="blue">jessica.claire@live.com</tspan></text>


		<line x1="44" y1="177" x2="772" y2="177" class="line" />
		<text x="44" y="201" class="heading ffpl fsi fwb">PROFESSIONAL SUMMARY</text>
		<text x="44" y="227" class="summary-text fwb">
			<tspan>Accomplished Operations executive with a successful track record overseeing regional Marketing, IT,</tspan>
			<tspan x="44" dy="22">HR/training and property in company and franchise operations for a large chain of restaurants.</tspan>
		</text>


		<line x1="44" y1="253" x2="772" y2="253" class="line" />
		<text x="44" y="277" class="heading ffpl fsi fwb">SKILLS</text>

		<circle cx="61" cy="297" r="3.5" class="disc" />
		<circle cx="61" cy="319" r="3.5" class="disc" />
		<circle cx="61" cy="361" r="3.5" class="disc" />
		<circle cx="425" cy="297" r="3.5" class="disc" />
		<circle cx="425" cy="319" r="3.5" class="disc" />
		<circle cx="425" cy="340" r="3.5" class="disc" />

		<text x="75" y="303">
			<tspan>Executive team leadership</tspan>
			<tspan x="75" dy="21">Multi-million pound P&amp;L management expertise</tspan>
			<tspan x="75" dy="21">for South East Region</tspan>
			<tspan x="75" dy="21">Client/vendor relations</tspan>
		</text>

		<text x="439" y="303">
			<tspan>Marketing/product line development</tspan>
			<tspan x="439" dy="21">Staff/training policy development</tspan>
			<tspan x="439" dy="21">Process improvement</tspan>
		</text>


		<line x1="44" y1="393" x2="772" y2="393" class="line" />
		<text x="44" y="417" class="heading ffpl fsi fwb">WORK HISTORY</text>
		<text x="44" y="443" class="dull ffplv fsi">District Manager | San Francisco, CA | September 2009 - Current</text>

		<circle cx="61" cy="458" r="3.5" class="disc" />
		<circle cx="61" cy="502" r="3.5" class="disc" />
		<circle cx="61" cy="523" r="3.5" class="disc" />

		<text x="75" y="464">
			<tspan>Directed recruitment/training/staff development initiatives to maximize productivity and revenue potential</tspan>
			<tspan x="75" dy="22">through development of a sales team.</tspan>
			<tspan x="75" dy="21">Successfully increased employee retention by created a positive work environment in 18 stores.</tspan>
			<tspan x="75" dy="21">Administered daily operations to ensure policies were adhered to and understood by sales staff.</tspan>
		</text>
	</g>

	<g>
		<circle cx="374" cy="18" r="4" fill="#a3afbf"></circle>
		<circle cx="383" cy="18" r="2" fill="#00b483"></circle>
		<circle cx="373" cy="475" r="15" fill="#414149"></circle>
	</g>


	<ellipse cx="370" cy="594" rx="130" ry="7" fill="#000000" opacity=".5" />

	<svg x="0" y="508" class="desktop-stand">
		<rect fill="#d8dce2" x="0" y="0" width="747" height="18" />
		<rect fill="#e7ecf1" x="0" y="17" width="747" height="70" />
	</svg>
</svg>